<?xml version="1.0" encoding="UTF-8" standalone="no"?><svg xmlns="http://www.w3.org/2000/svg" xmlns:xlink="http://www.w3.org/1999/xlink" contentStyleType="text/css" height="315px" preserveAspectRatio="none" style="width:548px;height:315px;background:#FFFFFF;" version="1.1" viewBox="0 0 548 315" width="548px" zoomAndPan="magnify"><defs/><g><!--MD5=[315b61b427ec618d6861d47eee00cca3]
class Console--><g id="elem_Console"><rect codeLine="1" fill="#F1F1F1" height="294.5313" id="Console" rx="2.5" ry="2.5" style="stroke:#181818;stroke-width:0.5;" width="527" x="7" y="7"/><ellipse cx="240.25" cy="23" fill="#ADD1B2" rx="11" ry="11" style="stroke:#181818;stroke-width:1.0;"/><path d="M243.0156,18.875 Q243.1719,18.6563 243.3594,18.5469 Q243.5469,18.4375 243.7656,18.4375 Q244.1406,18.4375 244.375,18.6953 Q244.6094,18.9531 244.6094,19.5625 L244.6094,21.0156 Q244.6094,21.625 244.375,21.8906 Q244.1406,22.1563 243.7656,22.1563 Q243.4219,22.1563 243.2188,21.9531 Q243.0156,21.7656 242.9063,21.25 Q242.8594,20.8906 242.6719,20.7031 Q242.3438,20.3281 241.7344,20.1094 Q241.125,19.8906 240.5,19.8906 Q239.7344,19.8906 239.1016,20.2188 Q238.4688,20.5469 237.9766,21.2969 Q237.4844,22.0469 237.4844,23.0781 L237.4844,24.1719 Q237.4844,25.4063 238.375,26.2266 Q239.2656,27.0469 240.8594,27.0469 Q241.7969,27.0469 242.4531,26.7969 Q242.8438,26.6406 243.2656,26.2031 Q243.5313,25.9375 243.6797,25.8594 Q243.8281,25.7813 244.0313,25.7813 Q244.3594,25.7813 244.6172,26.0391 Q244.875,26.2969 244.875,26.6406 Q244.875,26.9844 244.5313,27.3906 Q244.0313,27.9688 243.2344,28.2969 Q242.1563,28.75 240.8594,28.75 Q239.3438,28.75 238.1406,28.125 Q237.1563,27.625 236.4688,26.5547 Q235.7813,25.4844 235.7813,24.2031 L235.7813,23.0469 Q235.7813,21.7188 236.3984,20.5703 Q237.0156,19.4219 238.1094,18.8047 Q239.2031,18.1875 240.4375,18.1875 Q241.1719,18.1875 241.8203,18.3516 Q242.4688,18.5156 243.0156,18.875 Z " fill="#000000"/><text fill="#000000" font-family="sans-serif" font-size="14" lengthAdjust="spacing" textLength="52" x="260.75" y="28.7285">Console</text><line style="stroke:#181818;stroke-width:0.5;" x1="8" x2="533" y1="39" y2="39"/><ellipse cx="18" cy="53.3047" fill="none" rx="3" ry="3" style="stroke:#038048;stroke-width:1.0;"/><text fill="#000000" font-family="sans-serif" font-size="14" lengthAdjust="spacing" textLength="78" x="27" y="57.5332">String brand</text><ellipse cx="18" cy="70.9141" fill="none" rx="3" ry="3" style="stroke:#038048;stroke-width:1.0;"/><text fill="#000000" font-family="sans-serif" font-size="14" lengthAdjust="spacing" textLength="79" x="27" y="75.1426">String model</text><rect fill="none" height="6" style="stroke:#C82930;stroke-width:1.0;" width="6" x="15" y="85.5234"/><text fill="#000000" font-family="sans-serif" font-size="14" lengthAdjust="spacing" textLength="64" x="27" y="92.752">String cpu</text><rect fill="none" height="6" style="stroke:#C82930;stroke-width:1.0;" width="6" x="15" y="103.1328"/><text fill="#000000" font-family="sans-serif" font-size="14" lengthAdjust="spacing" textLength="91" x="27" y="110.3613">String memory</text><rect fill="none" height="6" style="stroke:#C82930;stroke-width:1.0;" width="6" x="15" y="120.7422"/><text fill="#000000" font-family="sans-serif" font-size="14" lengthAdjust="spacing" textLength="132" x="27" y="127.9707">String memorySpeed</text><rect fill="none" height="6" style="stroke:#C82930;stroke-width:1.0;" width="6" x="15" y="138.3516"/><text fill="#000000" font-family="sans-serif" font-size="14" lengthAdjust="spacing" textLength="77" x="27" y="145.5801">Number age</text><rect fill="none" height="6" style="stroke:#C82930;stroke-width:1.0;" width="6" x="15" y="155.9609"/><text fill="#000000" font-family="sans-serif" font-size="14" lengthAdjust="spacing" textLength="115" x="27" y="163.1895">Boolean handheld</text><rect fill="none" height="6" style="stroke:#C82930;stroke-width:1.0;" width="6" x="15" y="173.5703"/><text fill="#000000" font-family="sans-serif" font-size="14" lengthAdjust="spacing" textLength="126" x="27" y="180.7988">Number maxFrames</text><rect fill="none" height="6" style="stroke:#C82930;stroke-width:1.0;" width="6" x="15" y="191.1797"/><text fill="#000000" font-family="sans-serif" font-size="14" lengthAdjust="spacing" textLength="122" x="27" y="198.4082">Number timePlayed</text><rect fill="none" height="6" style="stroke:#C82930;stroke-width:1.0;" width="6" x="15" y="208.7891"/><text fill="#000000" font-family="sans-serif" font-size="14" lengthAdjust="spacing" textLength="191" x="27" y="216.0176">Boolean hasBeenOverclocked</text><line style="stroke:#181818;stroke-width:0.5;" x1="8" x2="533" y1="223.0938" y2="223.0938"/><ellipse cx="18" cy="237.3984" fill="#84BE84" rx="3" ry="3" style="stroke:#038048;stroke-width:1.0;"/><text fill="#000000" font-family="sans-serif" font-size="14" lengthAdjust="spacing" textLength="501" x="27" y="241.627">constructor(brand, model, memory, memorySpeed, age, handheld, maxFrames)</text><ellipse cx="18" cy="255.0078" fill="#84BE84" rx="3" ry="3" style="stroke:#038048;stroke-width:1.0;"/><text fill="#000000" font-family="sans-serif" font-size="14" lengthAdjust="spacing" textLength="62" x="27" y="259.2363">play(time)</text><ellipse cx="18" cy="272.6172" fill="#84BE84" rx="3" ry="3" style="stroke:#038048;stroke-width:1.0;"/><text fill="#000000" font-family="sans-serif" font-size="14" lengthAdjust="spacing" textLength="118" x="27" y="276.8457">addMemory(value)</text><ellipse cx="18" cy="290.2266" fill="#84BE84" rx="3" ry="3" style="stroke:#038048;stroke-width:1.0;"/><text fill="#000000" font-family="sans-serif" font-size="14" lengthAdjust="spacing" textLength="70" x="27" y="294.4551">overclock()</text></g><!--MD5=[be9779267a9da4143edc24f5b1a1d152]
@startuml Console
class Console{
  + String brand
  + String model
  - String cpu
  - String memory
  - String memorySpeed
  - Number age
  - Boolean handheld
  - Number maxFrames
  - Number timePlayed
  - Boolean hasBeenOverclocked
  + constructor(brand, model, memory, memorySpeed, age, handheld, maxFrames)
  + play(time)
  + addMemory(value)
  + overclock()
}
@enduml

PlantUML version 1.2022.7(Mon Aug 22 19:01:30 CEST 2022)
(GPL source distribution)
Java Runtime: Java(TM) SE Runtime Environment
JVM: Java HotSpot(TM) Client VM
Default Encoding: Cp1252
Language: de
Country: AT
--></g></svg>